<svg xmlns="http://www.w3.org/2000/svg" width="100" height="160" viewBox="0 0 100 160"><defs><clipPath id="a"><rect width="100" height="160" rx="7"/></clipPath></defs><g clip-path="url(#a)"><path fill="#f4ecdd" d="M0 0h100v160H0z"/><path fill="#1d1713" d="m28.5 120.4.5 2.6.8 3.7 1.3 4.2 1 4.6.4 4.6.2 5.1-.3 5.9-.4 6-.3 5.2-.2 3.6 1 .2.6-3.7.7-5.1.9-6 .5-6 .3-5.4-.5-4.8-.8-4.8-.8-4.5-1.1-3.6-.8-2.6Zm28 19.7.2 2.9v2.9l.4 2.9.3 2.9.4 2.8.3 2.9.5 2.9.5 2.9.4 2.8h1v-5.9l.1-2.9-.2-2.9v-2.9l-.2-2.9v-2.9l-.5-2.8-.2-2.9Z"/><path fill="#e9af41" d="m34.2 119.4 3.1 1.3 3.2-.2 3.2-.3 3.2-.3.1-1.7-3.1-.7-3.2-.7-3.1-.6-3.3 1Z"/><path fill="#e9af41" d="m33.4 120.8 2.5 2.3 3 1 3.1 1 3.1.7.7-1.4-2.7-1.9-2.7-1.7-2.7-1.6-3.4-.5Z"/><path fill="#e9af41" d="m32.2 121.8 1.3 3.1 2.4 2.1 2.6 2 2.7 1.8 1.1-1-1.7-2.8-1.8-2.7-2-2.5-3.1-1.5Z"/><path fill="#e9af41" d="m30.3 122.4-.1 3.4 1.3 2.9 1.7 2.8 1.6 2.8 1.4-.4-.4-3.3-.5-3.2-.7-3.1-2.1-2.6Z"/><path fill="#e9af41" d="m28.5 122.1-1.3 3.1-.3 3.2.3 3.2.3 3.2 1.6.2 1-3.1.9-3.1.4-3.2-.8-3.3Z"/><path fill="#e9af41" d="m27.3 121.5-2.2 2.5-1.2 3-.7 3.1-.7 3.2 1.5.6 1.8-2.7 1.8-2.7 1.3-2.9.4-3.3Z"/><path fill="#e9af41" d="m26 119.9-3 1.4-2.3 2.1-2.1 2.5-1.9 2.7.9 1.1 2.9-1.6 2.8-1.6 2.5-2 1.8-2.8Z"/><path fill="#e9af41" d="m25.6 118.1-3.3.1-3 1.1-2.9 1.4-2.9 1.5.5 1.5 3.2-.4 3.2-.5 3.1-.7 2.8-1.7Z"/><path fill="#e9af41" d="m25.8 116.7-3.1-1.4-3.2.2-3.2.2-3.2.5-.1 1.6 3.1.8 3.2.6 3.1.6 3.3-1Z"/><path fill="#e9af41" d="m26.7 115.1-2.4-2.4-3-1-3-1.2-3.2-.7-.7 1.4 2.5 2.1 2.8 1.6 2.7 1.8 3.3.4Z"/><path fill="#e9af41" d="m28 114-1.3-3.1-2.5-2-2.5-2-2.5-2L18 106l1.7 2.7 1.8 2.6 1.8 2.8 3 1.6Z"/><path fill="#e9af41" d="m29.6 113.6-.2-3.3-1.2-3-1.5-2.8-1.9-2.7-1.3.5.3 3.2.7 3.2 1 3 2 2.7Z"/><path fill="#e9af41" d="m31.4 113.8 1.5-3-.2-3.3-.2-3.2-.5-3.2-1.5-.1-.9 3.1-.7 3.2-.6 3.1 1 3.3Z"/><path fill="#e9af41" d="m32.7 114.5 2.2-2.5.9-3.1.9-3.1.6-3.2-1.3-.5-1.9 2.6-1.6 2.8-1.6 2.8-.3 3.3Z"/><path fill="#e9af41" d="m33.7 115.7 3.2-1.3 2-2.5 1.9-2.6 1.8-2.8-1.1-1.1-2.7 1.8-2.7 1.9-2.5 2-1.3 3.2Z"/><path fill="#e9af41" d="m34.4 117.5 3.3-.3 2.9-1.4 2.7-1.7 2.7-1.8-.6-1.5-3.1.7-3.2.7-3 1-2.6 2.1Z"/><circle cx="30" cy="118" r="4.4" fill="#1d1713"/><path fill="#e9af41" d="m60.9 141 2.2.9h2.3l2.3-.3 2.2-.2.1-1.1-2.2-.5-2.2-.6-2.3-.4-2.2.6Z"/><path fill="#e9af41" d="m60.5 141.9 1.8 1.4 2.1.8 2.2.6 2.3.4.4-1-1.9-1.3-2-1.1-2-1-2.3-.3Z"/><path fill="#e9af41" d="m59.4 142.8.9 2.1 1.5 1.7 1.7 1.5 1.9 1.4.7-.7-1-2-1.2-2-1.4-1.7-2-1.3Z"/><path fill="#e9af41" d="m58.2 143.1-.1 2.4.9 2.1 1.2 1.9 1 2.1 1.1-.4-.4-2.2-.1-2.3-.6-2.2-1.5-1.9Z"/><path fill="#e9af41" d="m57.2 143-.7 2.2v2.3l.4 2.2.4 2.3h1.1l.4-2.2.5-2.3.1-2.2-.7-2.3Z"/><path fill="#e9af41" d="m55.8 142.2-1.6 1.7-.9 2.1-.9 2.1-.6 2.2 1 .5 1.5-1.7 1.2-1.9 1.3-1.9.5-2.3Z"/><path fill="#e9af41" d="m55.3 141.5-2.1 1.1-1.5 1.6-1.4 1.8-1.4 1.9.8.7 1.9-1.2 1.9-1.3 1.7-1.5 1.1-2Z"/><path fill="#e9af41" d="M54.9 140.2h-2.4l-2.1.9-2 1-1.9 1.2.3 1.1 2.3-.2 2.3-.4 2.1-.7 1.9-1.4Z"/><path fill="#e9af41" d="m55 139.2-2.2-.9-2.3.4-2.2.1-2.3.6v1l2.2.6 2.3.2 2.2.4 2.3-.8Z"/><path fill="#e9af41" d="m55.7 137.9-1.5-1.8-2.2-.9-2.1-.7-2.2-.7-.5 1 1.7 1.5 1.8 1.4 1.9 1.3 2.4.2Z"/><path fill="#e9af41" d="m56.6 137.3-.8-2.4-1.7-1.4-1.7-1.6-1.8-1.4-.8.7 1.1 2.1 1.3 1.8 1.1 2 2.2 1.1Z"/><path fill="#e9af41" d="m57.9 136.9.2-2.4-.9-2.1-1-2-1.2-2-1 .3.1 2.3.3 2.2.5 2.3 1.5 1.9Z"/><path fill="#e9af41" d="m59 137.1.8-2.2.2-2.3-.3-2.3-.4-2.2-1-.1-.7 2.2-.6 2.2-.1 2.3.5 2.3Z"/><path fill="#e9af41" d="m60 137.7 1.7-1.7.8-2.2.6-2.1.7-2.2-1-.5-1.3 1.8-1.4 1.9-1.1 1.9-.4 2.4Z"/><path fill="#e9af41" d="m60.7 138.6 2.2-.9 1.7-1.6 1.4-1.7 1.3-1.9-.6-.8-2.1 1.1-1.9 1.1-1.7 1.5-1.2 2.1Z"/><path fill="#e9af41" d="m61.1 139.8 2.4.1 2-1 2.1-1 2-1.1-.4-1.1-2.2.3-2.3.4-2.2.4-1.9 1.5Z"/><circle cx="58" cy="140" r="3.1" fill="#1d1713"/><path fill="#1d1713" d="m6.7 151.1 3.2.1 3.4-1.3 3-2.1 2.1-1.7 2-.7 2.2-1.1 2.4-.6 1.7-1v-.4l-1.6-1.2-2.4-.9-3.1-1-3.5.5-3.7 1.3-3.6 2.1-2.6 2.8-.9 3Z"/><path fill="#1666aa" d="m64 18.5-1.1 3.4-.3 5.2-2 6-1.5 6.8-.6 7.1.3 6.9.6 6.8 2 6.3 1.7 6 2.2 5.3 1.6 4.9 1.3 4.4.3 4.7-.9 5.1v5.3l-.7 5-.4 4.3-.7 3.1 9.4 1.8.5-3.1 1.3-4 1.4-5.1 1.7-5.6.3-6.1.4-6.2-.1-6.3-1.2-6.1-1.2-6-1.7-5.4-.7-5.2-.7-4.5.6-5 .9-5.9.8-6.1.4-6 1.9-4.9.2-3.9Z"/><path fill="#1d1713" d="m65 45.7 2.7.8 2.8.4 2.8.1.4-1-2.5-1.5-2.5-1.3-2.7-.9ZM65 62l2.7.8 2.8.4 2.8.1.4-1-2.5-1.5-2.5-1.3-2.7-.9Zm0 16.4 2.7.7 2.8.4 2.8.2.4-1.1-2.5-1.5-2.5-1.3-2.7-.9Z"/><rect width="27" height="31" x="4" y="5" fill="#da4620" rx="3"/><path fill="none" stroke="#f4ecdd" stroke-linecap="round" stroke-linejoin="round" stroke-width="3.6" d="M23.3 18.4c0 3.4-2.4 5.5-5.8 5.5s-5.8-2.4-5.8-6.7c0-3.9 2.5-6.7 5.8-6.7 3.7 0 5.8 2.9 5.8 7.9V21c0 6.6-2.6 10.5-6.3 10.5a7 7 0 0 1-4.5-1.6"/><path fill="#1666aa" stroke="#1d1713" stroke-width="2" d="M6.5 46 26 41l2.5 9L9 55Z"/></g></svg>