<svg xmlns="http://www.w3.org/2000/svg" width="100" height="160" viewBox="0 0 100 160"><defs><clipPath id="a"><rect width="100" height="160" rx="7"/></clipPath></defs><g clip-path="url(#a)"><path fill="#f7f3eb" d="M0 0h100v160H0z"/><path fill="none" stroke="#1b2130" stroke-linecap="round" stroke-linejoin="round" stroke-width="3" d="m72 42-2 28"/><ellipse cx="72" cy="29.6" fill="#f8c143" stroke="#1b2130" stroke-width="1.8" rx="4" ry="8.4"/><ellipse cx="72" cy="29.6" fill="#f8c143" stroke="#1b2130" stroke-width="1.8" rx="4" ry="8.4" transform="rotate(30 72 42)"/><ellipse cx="72" cy="29.6" fill="#f8c143" stroke="#1b2130" stroke-width="1.8" rx="4" ry="8.4" transform="rotate(60 72 42)"/><ellipse cx="72" cy="29.6" fill="#f8c143" stroke="#1b2130" stroke-width="1.8" rx="4" ry="8.4" transform="rotate(90 72 42)"/><ellipse cx="72" cy="29.6" fill="#f8c143" stroke="#1b2130" stroke-width="1.8" rx="4" ry="8.4" transform="rotate(120 72 42)"/><ellipse cx="72" cy="29.6" fill="#f8c143" stroke="#1b2130" stroke-width="1.8" rx="4" ry="8.4" transform="rotate(150 72 42)"/><ellipse cx="72" cy="29.6" fill="#f8c143" stroke="#1b2130" stroke-width="1.8" rx="4" ry="8.4" transform="rotate(180 72 42)"/><ellipse cx="72" cy="29.6" fill="#f8c143" stroke="#1b2130" stroke-width="1.8" rx="4" ry="8.4" transform="rotate(210 72 42)"/><ellipse cx="72" cy="29.6" fill="#f8c143" stroke="#1b2130" stroke-width="1.8" rx="4" ry="8.4" transform="rotate(240 72 42)"/><ellipse cx="72" cy="29.6" fill="#f8c143" stroke="#1b2130" stroke-width="1.8" rx="4" ry="8.4" transform="rotate(270 72 42)"/><ellipse cx="72" cy="29.6" fill="#f8c143" stroke="#1b2130" stroke-width="1.8" rx="4" ry="8.4" transform="rotate(300 72 42)"/><ellipse cx="72" cy="29.6" fill="#f8c143" stroke="#1b2130" stroke-width="1.8" rx="4" ry="8.4" transform="rotate(330 72 42)"/><circle cx="72" cy="42" r="6.8" fill="#de3d30" stroke="#1b2130" stroke-width="1.8"/><path fill="#de3d30" stroke="#1b2130" stroke-width="2.4" d="M18 96h68c-2 20-16 30-34 30s-32-10-34-30Z"/><ellipse cx="52" cy="96" fill="#de3d30" stroke="#1b2130" stroke-width="2.4" rx="34" ry="6.5"/><ellipse cx="52" cy="96" fill="#1b2130" rx="28" ry="3.6"/><path fill="#1b2130" stroke="#1b2130" stroke-width="2.4" d="m40 125-4 11h32l-4-11"/><ellipse cx="52" cy="105.4" fill="#f8c143" stroke="#1b2130" stroke-width="1.8" rx="1.8" ry="3.8"/><ellipse cx="52" cy="105.4" fill="#f8c143" stroke="#1b2130" stroke-width="1.8" rx="1.8" ry="3.8" transform="rotate(45 52 111)"/><ellipse cx="52" cy="105.4" fill="#f8c143" stroke="#1b2130" stroke-width="1.8" rx="1.8" ry="3.8" transform="rotate(90 52 111)"/><ellipse cx="52" cy="105.4" fill="#f8c143" stroke="#1b2130" stroke-width="1.8" rx="1.8" ry="3.8" transform="rotate(135 52 111)"/><ellipse cx="52" cy="105.4" fill="#f8c143" stroke="#1b2130" stroke-width="1.8" rx="1.8" ry="3.8" transform="rotate(180 52 111)"/><ellipse cx="52" cy="105.4" fill="#f8c143" stroke="#1b2130" stroke-width="1.8" rx="1.8" ry="3.8" transform="rotate(225 52 111)"/><ellipse cx="52" cy="105.4" fill="#f8c143" stroke="#1b2130" stroke-width="1.8" rx="1.8" ry="3.8" transform="rotate(270 52 111)"/><ellipse cx="52" cy="105.4" fill="#f8c143" stroke="#1b2130" stroke-width="1.8" rx="1.8" ry="3.8" transform="rotate(315 52 111)"/><circle cx="52" cy="111" r="3.1" fill="#de3d30" stroke="#1b2130" stroke-width="1.8"/><path fill="none" stroke="#1b2130" stroke-linecap="round" stroke-linejoin="round" stroke-width="4.2" d="M21.3 17.8c0 4.2-2.9 6.8-7.2 6.8-4.2 0-7.1-2.9-7.1-8.3C7 11.4 10.1 8 14.1 8c4.6 0 7.2 3.6 7.2 9.8V21c0 8.1-3.3 13-7.8 13Q10 33.9 8 32.1"/><path fill="#1b2130" d="m10.5 39 7.6 9-7.6 9-7.6-9Z"/><rect width="4.4" height="8.5" x="20.2" y="43.7" fill="#1b2130" rx="1.2"/><rect width="4.4" height="8.5" x="26.5" y="43.7" fill="#1b2130" rx="1.2"/></g></svg>