<svg xmlns="http://www.w3.org/2000/svg" viewBox="0 0 100 160"><rect width="100" height="160" fill="#ec1c24" rx="4"/><rect width="92" height="152" x="4" y="4" fill="#fff" rx="2"/><path fill="#0b0b0b" d="M94 6q-8 32-30 43-13 8-20 33-9 29-39 48v11q41-21 48-53 11-30 26-34 12-5 17-25V6Z"/><g stroke="#0b0b0b" transform="matrix(.9 0 0 .9 75 34)"><path fill="#ec1c24" stroke-linecap="round" stroke-linejoin="round" stroke-width="1.4" d="M0-5c-5-7-12-5-12 2q0 5 5 6-3 6 3 9 5 2 7-4 6 4 10-2 2-5-4-8 3-6-2-9-4-1-7 6"/><path fill="none" stroke-linecap="round" stroke-linejoin="round" stroke-width=".8" d="m0 0-5-6m5 6 7-6M0 0l8 5M0 0l-4 8"/><circle r="3" fill="#f5dc27"/></g><g stroke="#0b0b0b" transform="matrix(.8 0 0 .8 60 24)"><path fill="#ec1c24" stroke-linecap="round" stroke-linejoin="round" stroke-width="1.4" d="M0-5c-5-7-12-5-12 2q0 5 5 6-3 6 3 9 5 2 7-4 6 4 10-2 2-5-4-8 3-6-2-9-4-1-7 6"/><path fill="none" stroke-linecap="round" stroke-linejoin="round" stroke-width=".8" d="m0 0-5-6m5 6 7-6M0 0l8 5M0 0l-4 8"/><circle r="3" fill="#f5dc27"/></g><g stroke="#0b0b0b" transform="matrix(.77 0 0 .77 89 62)"><path fill="#ec1c24" stroke-linecap="round" stroke-linejoin="round" stroke-width="1.4" d="M0-5c-5-7-12-5-12 2q0 5 5 6-3 6 3 9 5 2 7-4 6 4 10-2 2-5-4-8 3-6-2-9-4-1-7 6"/><path fill="none" stroke-linecap="round" stroke-linejoin="round" stroke-width=".8" d="m0 0-5-6m5 6 7-6M0 0l8 5M0 0l-4 8"/><circle r="3" fill="#f5dc27"/></g><g stroke="#0b0b0b" transform="matrix(.88 0 0 .88 40 63)"><path fill="#ec1c24" stroke-linecap="round" stroke-linejoin="round" stroke-width="1.4" d="M0-5c-5-7-12-5-12 2q0 5 5 6-3 6 3 9 5 2 7-4 6 4 10-2 2-5-4-8 3-6-2-9-4-1-7 6"/><path fill="none" stroke-linecap="round" stroke-linejoin="round" stroke-width=".8" d="m0 0-5-6m5 6 7-6M0 0l8 5M0 0l-4 8"/><circle r="3" fill="#f5dc27"/></g><g stroke="#0b0b0b" transform="matrix(.9 0 0 .9 24 90)"><path fill="#ec1c24" stroke-linecap="round" stroke-linejoin="round" stroke-width="1.4" d="M0-5c-5-7-12-5-12 2q0 5 5 6-3 6 3 9 5 2 7-4 6 4 10-2 2-5-4-8 3-6-2-9-4-1-7 6"/><path fill="none" stroke-linecap="round" stroke-linejoin="round" stroke-width=".8" d="m0 0-5-6m5 6 7-6M0 0l8 5M0 0l-4 8"/><circle r="3" fill="#f5dc27"/></g><g stroke="#0b0b0b" transform="matrix(.74 0 0 .74 68 77)"><path fill="#ec1c24" stroke-linecap="round" stroke-linejoin="round" stroke-width="1.4" d="M0-5c-5-7-12-5-12 2q0 5 5 6-3 6 3 9 5 2 7-4 6 4 10-2 2-5-4-8 3-6-2-9-4-1-7 6"/><path fill="none" stroke-linecap="round" stroke-linejoin="round" stroke-width=".8" d="m0 0-5-6m5 6 7-6M0 0l8 5M0 0l-4 8"/><circle r="3" fill="#f5dc27"/></g><g stroke="#0b0b0b" transform="matrix(.82 0 0 .82 84 91)"><path fill="#ec1c24" stroke-linecap="round" stroke-linejoin="round" stroke-width="1.4" d="M0-5c-5-7-12-5-12 2q0 5 5 6-3 6 3 9 5 2 7-4 6 4 10-2 2-5-4-8 3-6-2-9-4-1-7 6"/><path fill="none" stroke-linecap="round" stroke-linejoin="round" stroke-width=".8" d="m0 0-5-6m5 6 7-6M0 0l8 5M0 0l-4 8"/><circle r="3" fill="#f5dc27"/></g><g stroke="#0b0b0b" transform="matrix(.72 0 0 .72 27 38)"><path fill="#ec1c24" stroke-linecap="round" stroke-linejoin="round" stroke-width="1.4" d="M0-5c-5-7-12-5-12 2q0 5 5 6-3 6 3 9 5 2 7-4 6 4 10-2 2-5-4-8 3-6-2-9-4-1-7 6"/><path fill="none" stroke-linecap="round" stroke-linejoin="round" stroke-width=".8" d="m0 0-5-6m5 6 7-6M0 0l8 5M0 0l-4 8"/><circle r="3" fill="#f5dc27"/></g><g stroke="#0b0b0b" transform="matrix(.73 0 0 .73 49 38)"><path fill="#ec1c24" stroke-linecap="round" stroke-linejoin="round" stroke-width="1.4" d="M0-5c-5-7-12-5-12 2q0 5 5 6-3 6 3 9 5 2 7-4 6 4 10-2 2-5-4-8 3-6-2-9-4-1-7 6"/><path fill="none" stroke-linecap="round" stroke-linejoin="round" stroke-width=".8" d="m0 0-5-6m5 6 7-6M0 0l8 5M0 0l-4 8"/><circle r="3" fill="#f5dc27"/></g><g stroke="#0b0b0b" transform="matrix(.64 0 0 .64 77 14)"><path fill="#ec1c24" stroke-linecap="round" stroke-linejoin="round" stroke-width="1.4" d="M0-5c-5-7-12-5-12 2q0 5 5 6-3 6 3 9 5 2 7-4 6 4 10-2 2-5-4-8 3-6-2-9-4-1-7 6"/><path fill="none" stroke-linecap="round" stroke-linejoin="round" stroke-width=".8" d="m0 0-5-6m5 6 7-6M0 0l8 5M0 0l-4 8"/><circle r="3" fill="#f5dc27"/></g><g stroke="#0b0b0b" transform="matrix(.65 0 0 .65 15 65)"><path fill="#ec1c24" stroke-linecap="round" stroke-linejoin="round" stroke-width="1.4" d="M0-5c-5-7-12-5-12 2q0 5 5 6-3 6 3 9 5 2 7-4 6 4 10-2 2-5-4-8 3-6-2-9-4-1-7 6"/><path fill="none" stroke-linecap="round" stroke-linejoin="round" stroke-width=".8" d="m0 0-5-6m5 6 7-6M0 0l8 5M0 0l-4 8"/><circle r="3" fill="#f5dc27"/></g><g stroke="#0b0b0b" transform="matrix(.7 0 0 .7 61 101)"><path fill="#ec1c24" stroke-linecap="round" stroke-linejoin="round" stroke-width="1.4" d="M0-5c-5-7-12-5-12 2q0 5 5 6-3 6 3 9 5 2 7-4 6 4 10-2 2-5-4-8 3-6-2-9-4-1-7 6"/><path fill="none" stroke-linecap="round" stroke-linejoin="round" stroke-width=".8" d="m0 0-5-6m5 6 7-6M0 0l8 5M0 0l-4 8"/><circle r="3" fill="#f5dc27"/></g><g stroke="#0b0b0b" transform="matrix(.61 0 0 .61 91 39)"><path fill="#ec1c24" stroke-linecap="round" stroke-linejoin="round" stroke-width="1.4" d="M0-5c-5-7-12-5-12 2q0 5 5 6-3 6 3 9 5 2 7-4 6 4 10-2 2-5-4-8 3-6-2-9-4-1-7 6"/><path fill="none" stroke-linecap="round" stroke-linejoin="round" stroke-width=".8" d="m0 0-5-6m5 6 7-6M0 0l8 5M0 0l-4 8"/><circle r="3" fill="#f5dc27"/></g><g stroke="#0b0b0b" transform="matrix(.69 0 0 .69 38 24)"><path fill="#ec1c24" stroke-linecap="round" stroke-linejoin="round" stroke-width="1.4" d="M0-5c-5-7-12-5-12 2q0 5 5 6-3 6 3 9 5 2 7-4 6 4 10-2 2-5-4-8 3-6-2-9-4-1-7 6"/><path fill="none" stroke-linecap="round" stroke-linejoin="round" stroke-width=".8" d="m0 0-5-6m5 6 7-6M0 0l8 5M0 0l-4 8"/><circle r="3" fill="#f5dc27"/></g><path fill="#ec1c24" stroke="#0b0b0b" stroke-linecap="round" stroke-linejoin="round" stroke-width="2" d="M22 104q28-8 57 0l6 33q-34-9-67 1Z"/><path fill="none" stroke="#0b0b0b" stroke-linecap="round" stroke-linejoin="round" stroke-width="2" d="M19 104q32-9 64 0m-61 8q30-8 60-1"/><path fill="none" stroke="#0b0b0b" stroke-linecap="round" stroke-linejoin="round" stroke-width="1.5" d="M27 135q20-8 43-1"/><circle cx="75" cy="145" r="8" fill="#ec1c24" stroke="#0b0b0b" stroke-width="2"/><path fill="none" stroke="#fff" stroke-linecap="round" stroke-linejoin="round" stroke-width="2.3" d="M71 139h8m-6-3-2-3m6 3 2-3m-4 6v6m-6 0h12m-8 1q0 6-5 8m9-8v7q0 2 4 1"/><path fill="none" stroke="#0b0b0b" stroke-linecap="round" stroke-linejoin="round" stroke-width="1.6" d="M9 9h4l-2 4q2 0 2 3t-3 3H9"/><circle cx="12" cy="24" r="2.7" fill="#ec1c24"/></svg>