<?xml version="1.0" encoding="UTF-8"?>
<!-- p2p-gostop 자체 제작 보너스 카드 50번 "보너스 3피" (주홍 땅). CC0 1.0 (https://creativecommons.org/publicdomain/zero/1.0/)
     Commons 화투 세트와 같은 판형(103.2×168.2)·테두리·선 굵기(1.2)·팔레트(흰 바탕, 먹, 주홍, 노랑)로 새로 그렸다. -->
<svg xmlns="http://www.w3.org/2000/svg" width="103.2" height="168.2" viewBox="0 0 103.2 168.2">
  <!-- 흰 앞면 -->
  <path fill="#fff" d="M13.3 7.2q-7 0-7 7V154q0 7 7 7h76.6q7 0 7-7V14.2q0-7-7-7z"/>
  <!-- "보너스" (선 글자) -->
  <g fill="none" stroke="#000" stroke-width="2.2" stroke-linecap="round" stroke-linejoin="round">
    <path d="M33 16.5v7.5h9v-7.5M33 20.2h9M37.5 24v3.2M31.5 28h12"/>
    <path d="M48 16v12h7.5M60 14.5v15.5M56.5 22h3.5"/>
    <path d="M69 15.5 64.5 23.5M69 15.5l4.8 8M63.5 28h12"/>
  </g>
  <!-- 가치: 주홍 숫자(먹 윤곽) + 먹 "피" -->
  <g fill="none" stroke-linecap="round" stroke-linejoin="round">
    <path stroke="#000" stroke-width="10.5" d="M16 48q3-7 11-7 10.5 0 10.5 10.5 0 10-11 11.5 12 .5 12 13.5 0 12.5-11.5 12.5-9 0-12-7"/>
    <path stroke="#ef1d1e" stroke-width="7" d="M16 48q3-7 11-7 10.5 0 10.5 10.5 0 10-11 11.5 12 .5 12 13.5 0 12.5-11.5 12.5-9 0-12-7"/>
    <path stroke="#000" stroke-width="7" d="M48 45h26M54 45.5 53 82M68 45.5l1 36.5M46.5 83h29M86 38v57"/>
  </g>
  <!-- 주홍 땅 (11월·12월 쌍피처럼 붉은 면 = 값이 큰 피) -->
  <path fill="#ef1d1e" stroke="#000" stroke-width="1.2" d="M6.3 161v-29c9-6 19-8 29-5 10 3 17 6 28 2 11-4 22-8 33.6-3V161z"/>
  <path fill="#000" d="M6.3 161v-12c8-5 18-6 27-3 10 3 19 3 30-1 12-4 23-4 33.6 0V161z"/>
  <!-- 뺏기: 갈고리가 피 한 장을 걸어 온다 -->
  <g stroke="#000" stroke-width="1.2" stroke-linejoin="round" transform="rotate(-14 42 130)">
    <path fill="#ef1d1e" d="M32 112h21q1.5 0 1.5 1.5v33q0 1.5-1.5 1.5H32q-1.5 0-1.5-1.5v-33q0-1.5 1.5-1.5z"/>
    <path fill="#fff" d="M34 115.5h17v29H34z"/>
    <path fill="none" stroke-width="2.2" stroke-linecap="round" d="M36.5 122h10M39 122v12.5M44 122v12.5M36 135h11M49 119.5v21"/>
  </g>
  <g fill="none" stroke-linecap="round" stroke-linejoin="round">
    <path stroke="#000" stroke-width="6" d="M76 101v17q0 13-11.5 13Q55 131 53 120"/>
    <path stroke="#faea01" stroke-width="3.4" d="M76 101v17q0 13-11.5 13Q55 131 53 120"/>
    <path stroke="#000" stroke-width="4.2" d="M53 120l5.5 3.5"/>
    <path stroke="#faea01" stroke-width="1.8" d="M53.4 120.3l4.6 3"/>
  </g>
  <circle cx="76" cy="99.5" r="3.4" fill="none" stroke="#000" stroke-width="2.2"/>
  <!-- 테두리 (Commons 세트와 같은 모양) -->
  <path fill="#ef1d1e" d="M5 0Q0 0 0 5v158.2q0 5 5 5h93.2q5 0 5-5V5q0-5-5-5zm8.3 7.2h76.6q7 0 7 7V154q0 7-7 7H13.3q-7 0-7-7V14.2q0-7 7-7"/>
  <path fill="none" stroke="#000" stroke-width="1.2" d="M13.3 7.2q-7 0-7 7V154q0 7 7 7h76.6q7 0 7-7V14.2q0-7-7-7z"/>
</svg>
