<svg xmlns="http://www.w3.org/2000/svg" width="103.2" height="168.2" viewBox="0 0 103.2 168.2"><path fill="#fff" d="M13.3 7.2q-7 0-7 7V154q0 7 7 7h76.6q7 0 7-7V14.2q0-7-7-7z"/><path fill="#1ca4da" d="M72.3 104.8q-.2.9-.9 2.5 0 .9.2 1.2l.8.2 1.4.1h.2q0 .2.4.1h.3v.1h.2l.2-.1q.3.4 1 .6l2.5 1.1.5.3h.7q.2.1.3.4t-.6.7q-.7.5-1.8.5h-.4l-.3.2-.8.3-2.6 1.4a6 6 0 0 0-2.2 1.3q-.6.4-.8.9l-.3.7-.2.3q-.2.3.1 1.2l.5.8q2.3 3.2 7 4.9a48 48 0 0 0 15.1 3l3.4.2 4-.3.6-.3.2-.6v-4.2l-.4-.7v-.1l-.4-.1h-.5l-1 .3-3.2.6-4.1.2-3-.2-.2-.1-1.2-.3-2-.9q-1.5-1-1.9-1l-3.3-1.2q-1.2-.7-1.9-1.6l-.3-.6q0-.4.3-.6.4-.6 1.4-.8l1.7-.3q.8 0 3.2-1l4.6-2q1.5-.7 1.7-1.5 0-.7-.7-1.5a8 8 0 0 0-3.7-2.5l-1-.3-.8-.4-2.5-.8a27 27 0 0 0-9.1-.8h-.1zm-47.7-3.2q.3 1.3 1.4 1.7h.4l.4.3q.3.8 1.2 1.5 1 .7 1.3 1.3v.1l.2.3q0 .4-.3.8-.4.3-.8.3h-1l-1 .3-.7.2h-1.2q-.2-.3-.6-.3l-5.6-1-3.5-.7h-.1l-3.9-1.1-4.9-1.7-1.3-.5-.3-.1h-.7a1 1 0 0 0-.4.9v5.3q0 .4.3.7l.2.1.2.5.8.3q5.1 1.1 9.3 1.7l2.8.4q6.3.5 12.5.3 1.2 0 2.1-.2.6 0 1.7-.6 1.9-1 2.4-2.7.3-1.5-1.3-4l-.4-.3q-.3-.5.3-.9l1-.3h.8q1.5-.5 3-.3h.7v-.2l2.1.5 1.1.2.2-.2.3-.2v-.1q0-.8.3-1.4.2-1 0-1.4l-.3-.8-.3-1.7q-1.4-.4-3.6-.7l-1.4-.3q-2-.3-4-.3l-2.2.2q-3.9.2-6.3 2-1.2 1-1 2"/><path fill="#faea01" d="m75.5 46.2-4.1 2.4-.4.2-2.4 1h-.2l-2.9 1q-1.2 0-2.3.3H63a19 19 0 0 1-4.2-.4 15 15 0 0 0-3.1 5.1 37 37 0 0 0 14-2.2l.9-.3 3.1-1.3.3-.2a36 36 0 0 0 6.7-3.7q-2.5-1.5-5.2-1.9M71 85.1q-.4 1.5-.5 3.7l-.1 6.3a41 41 0 0 0 1.3 11A56 56 0 0 0 73.5 95q0-5.6.2-8.8v-.8l-.9.1h-.9q-.4 0-.8-.4M55.8 95.4l-2 4.5-1 2.4-.8 2.8q-.6 1.5-.5 3a49 49 0 0 1-.8 7.8l1.1.4 2.4-8.1a41 41 0 0 1 3.2-7.3q1.4-2.8 1.7-4.2v-.3h-.3q-1 0-1.6-.2z"/><path fill="#f79e33" d="M15 124.9q0-.3-.3-.4H14l-.6.4-1.1.9-.8 1q-.4.3-.4.6 0 .6.4.6v.3l1 .2a8 8 0 0 1 2.2 2.6q.3.8.8 1.2 1 .9 3 1.6-.6 1.5.8 3.7 1 1.8 1.9 2.4l.2.1q-2.2.7-4.7 4.5a19 19 0 0 1-2.9 3.6q0 .3.2.5l1.4 1.2.6.5 1.2.6q.5.3.8.2h.1l.2-.3-.1-.3h.2l-.1-1.5q0-1.7 2.5-3a7 7 0 0 1 3-1.2q.7 0 2.2.4l2.2.3q1.4 0 2.4-.8.8-.7.9-1.8v-.3l-.1-.5.5.5.6.3H34q2 0 2.5-1.6t1.3-1.7q1.5 0 1.5 3.3 0 1-1 2.8l-.2.6-.2.5v.8l-.2.1v1h.5l1.4-.4 1.7-.7q.9-.4 1.4-1l.2-.5-.1-.4-.1-.1-.8-1.4q-.4-.5-.4-1.5l.2-1.5q0-2-.6-3.3-1-2-3.4-2l-1.2.1q-.3-.2-.3-.5v-.5q0-2.3-1.1-4.4a7 7 0 0 0-2.1-2.5l-1.9-1.2q-.5-.3-.5-.9l-.1-.8a8 8 0 0 1-1-3.7q.3-1.6.2-2.7l-.3.1q-.2-.4-.8-.7l-1.2-.5h-.7l-1.2.2-1.1.3-.4.3-.1.1.4.7v.1l.1.1v.1l.4.5a5 5 0 0 1 .6 4.3q-.3 1-.7 1l-1.2-1q-1-1-2.1-1-.8 0-1.5.5-.9.7-.8 1.5 0 1 .7 2.2c.7 1.2.8 1.3.8 1.6q-.2.5-.5.6l-.4.1h-.8q-.7 0-1.5-.4-1.2-.5-1.7-1.1-.7-.9-.6-1.9v-1.8"/><path fill="#289654" d="M63.7 55.2h-.2l-7.8.6A21 21 0 0 0 54 62a117 117 0 0 0 15.5-2.7l2.4-.6.2-.1L74 58q6-2.1 12.3-5.3-2.6-3-5.6-4.6L74 51.9l-.3.1a56 56 0 0 1-7.1 2.6zm4.8-5.3h.2l.3-.2 2-.9.5-.2h.2l3.9-2.4q-4.2-.9-8.6 0-5 1.2-8.1 4.6l4.2.3h.2l2.9-.5z"/><path fill="#ef1d1e" d="M58 75.2h-.3l-1.8.6h-.5l-2-.2q-.6 0-1.1 1.1l-.5 1.8v.1l-.3.2-2.7 1.2a8 8 0 0 0-3.3 2.8l-1.2 3.1a43 43 0 0 0-1.6 6.4l-.2 2.4.2 7.5q0 1.5-.4 3l-1.8 4.4q-1 2.6-1.4 7.1-.1 2.8 3.2 3.5l1.3.2-.1.4.1 2.7-.1 2.1q.3 2.3 6 3l3.3.2h2a39 39 0 0 0 5.9-.4h2.7q1.8 0 3.3-.7t1.2-2.5.3-6q.5-5.3-.8-11.6 1.8.3 3.6 0l.2-.2q.5-.3.6-1.3l-.8-4q-.5-2.8-.5-7v-6.3q.2-2 .6-3.7.5-2.2 1.2-3.4l-.3-.2q-.8.3-2 .3h-1.3q-1.6-.1-2.6-.4-1.2-.3-2-.8l-4.4-4-.1.1-.7-1q-.4-.5-.9-.5m2 16.6a2 2 0 0 1 1.5.7q.7.7.7 1.7 0 2-3.1 2.2v.2q-.3 1.5-1.7 4.3l-3.2 7.2-2.4 8.2-1.4 3a75 75 0 0 1 .9-8.3l.2-2.9q0-1.4.5-3l.9-2.8 2.9-6.9 1.2-2.3-.3-.5.5.1a10 10 0 0 1 2.8-.9"/><path d="m27.8 1.4-5.6 2.3a30 30 0 0 0-19 26.6l-.4.5q-.2.3-.2.9v6q0 .6.3 1l-.1.1v.1l-.2.7v8.5q0 1 .9 1.2l-.6 1.9.2.5.3-.3.5-.9.3-.7.3-.7q.5 0 .7-.4l.2-.3 1.1-2q1.3-2.1 1.8-3.3.6-1.6 3.3-3.6l.8-.6 1-.7.8 2.9a55 55 0 0 0 4.3 11q.6 1.1.4 2.3-1.5 5.5-3.5 11.8H15q-.3 0-.4.3v.2q0 .3.3.4l-.9 4.2-.3.3q-.2 0-.2.3l.1.2.2.1-.7 3.6q-.2 0-.5.4-.3 0-.3.4v.2h.6l-.2 4.2q-.8.8-1.6 1.2l-.5.3q-.5.2-.3.5 0 .3.5.1h.3c.4-.1 1-.7 1.6-1v1l.1 2.2-1.4 1.3-.3.2-.3.5.3.1h.4q.7-.2 1.5-1l.1 1v.2l.2 1.2-.8 1-2.3 2q-.3.3 0 .5t.4 0l1.6-1.1.3-.4 1-1 .3.9v.5l.4 1.4-.2.3-1 1.4-1.7 2.5q-.6.5-.3.8.3 0 .7-.3l1.3-1.7.3-.4 1.1-1.8.1.3.1.2.2.6.1.3.4 1.2-1 1.8-2.3 3.4-.1.7h.4l1.2-1.3 1.3-2 .9-1.7.1.3q.3.4.4.9h.1v.2l.1.2.4 3.6.3 1.6q.1.8.6.8l.1-.2.1-.4-.5-2.5-.1-1.7-.1-3.6v-.3l1.1 2.4 1.4 2.1q.3.5.6.4t.1-.3l-.2-.2q-.1-.6-.9-1.7l-.8-1.3q-.6-1.2-1-2.8l.3-.7q-.2-.7.3-1.5V92l.1-.2.1-.5 1 2.4q.9 1.2 1.8 1.9l.3.1v-.5l-1.7-2.6-.9-1.7-.2-.7.3-1L19 88l.3-.6v-.3l1.2 2q.4.8 1.2 1.2l.6.1-.1-.4-1.4-1.9-.6-.9-.5-1.3.5-1.9q0-.6.3-1l.1-.4q.6 1.3 1.2 1.9l.8.7.7.2-.3-.6-1-1.2-1-2 .5-2.1v-.3l.4-.9v-.4l1.2 2L24 81q.5.7.9.4l.1-.2-1.6-2.3-1-2 1-3.1.2-.6.1-.3.1-.2 1.1 1.8.9.9q.3.3.5 0l-.1-.5-1-1.3q-.6-.8-1-1.9l1.1-2.7v-.1l.4-.9 1.2 1.6.4.3.3.3q0 .2.3.1.3-.3-.2-.9l-.5-.6q-.6-.8-1-1.8l.5-.8q.3-.8 1.2-1.4h.7l.4.4q.4.4.7.1.1-.1-.2-.6l-.2-.1.4-.1q1 .2 1.7.8.4.4.5.9l-.9 1.5-.3.1q-.5.6-.2 1h.3l.3-.2v-.1l.7-.5.7-1 .2.7v.7l.3 1.9-2.3 3.2-.3.4q-.3.3 0 .4.3.4.9-.2l1.9-2.7v.5q.3.7.3 1.3l.4 2-1.3 1.9-2 2q-.3.4-.1.7.3.4.6.1l2.6-3 .4-.5v.2-.2.2l.3 1.3.4 1.4-1.2 1.8-2.3 3-.1.3h.4a10 10 0 0 0 2.3-2.3l.2-.4q.6-.8.9-1.6l.1.5v.1l.3.6v.3l.4 1q-.1 1.5-.5 2.6l-.1.4-.8 3.1q-.3.8.1 1.1l.5-.8 1.1-4.2q0 2.1.2 2.3l.2 1.1 1.4 4.9q.3 0 .3-.6l-.8-4.1-.6-4v-.2l1.3 2 1.3 1.5.3.2h.3l-.2-.6-1.5-2q-1-1.3-1.2-2.2l.4-1.4v-.1l.2-.8.1-.4v.1l.1-.5q.4 1 1.2 2l.6.6.6.2-.2-.5-1.1-1.6-.9-1.6.5-2.1v-.3l.2-.5v-.4.1l.1-.5q.5 1 1.3 1.8l.7.8q.4.3.7 0l-.2-.5-1-1.2-1.3-1.9.3-1.2V73l.2-1.3.1-.2v-.1l1.3 1.7.7 1q.4.5.9.2.3-.2-.1-.5l-1.2-1.7-.1-.1-1.3-1.8.4-1.8v-1l.2-.6c.4.6.9 1.6 1.3 2l.7.5q.4.3.6.2.3-.3-.1-.8l-1-1-1.4-2 .2-.9.1-1.3v-.7c.6.6 1 1.6 1.5 2l.5.5.3.3h.3q.3-.3-.2-.9l-.7-.8-1.5-2 .3-1.7-.1-.1q0-.8.2-1.4v-.1l1.4 1.5v.1q1.2.8 1.3.5.3-.2 0-.5l-.6-.5-.5-.6-1.5-1.7.2-3v-1.8l1.6 1.6 1.2 1q.7.6 1 .2t0-.4l-.5-.3-1.6-1.5-1.6-1.7V48l1.7 1.9.2.2.5.1v-.5L43 48.4l-1.1-1.2v-.4q0-1 .7-1.9l.7-.4.1.1.1.1q.8.9 1.2.6l.1-.2-.1-.4q-.5-.2-.5-.4-.2 0-.3-.2.3 0 .5-.3 1 0 2 .5l.9.5-.1.4-.3 1.4-.2 1-.2.6q-.1.3.2.5.4 0 .6-.8l.6-2.7.2.1.4.3v.1l.4.2.8 2.3.8 3 .5.5.1-.1-.6-2.9-1.1-3.7v-.7l.1-.2 1.5 1.3 1 .8q.5.3.8 0 .1-.3-.2-.6l-2.9-2.3-.3-.4v-1.1l-.2-1v-.2l1.7.9 1.3.6q.6.3 1 0l-.4-.5-1-.5-1-.5-2-1.3-.3-1-.2-.6c-.2-.4 0-1-.2-1.4l3.4 1.4q.4.3.7-.1.1-.3-.4-.5l-2.6-1.3-1.2-.4-.1-2v-.2l1.3.3q.6.1.8-.3.1-.3-.4-.4l-.3-.2-1.3-.3.3-2 .1-1v-.1l.2-.6.1-.2h1.5l.4-.1.1.2-.4 1.9-.3.8-.1.4v.3h.2q.3 0 .5-.4l.3-.5.4-1.9.8.8v.1l.8.8-.1 2.1-.6 1.8q-.4.7-.1 1 .3 0 .7-.6l.6-1.5.3-2 .5.5.1.1 2.1 6.4.2.2.2-.3-1.2-5 .1-.3v-.1l1.2 1.5q1.1 1.3 1.9 1.7l.4.2V36l-2-2.2-1-1.5.5-1 .3-1 1 1.1.3.2h.5q.2-.3-.3-.7l-1.1-1.1 1-1v.1q0 .3.2.5l.5-.2.4-.6 1.1-.1q.8.3 1.5 1l-.6 3.6v.1l.2.1q.2.1.4-.2l.2-.8.4-2.1.3.2.7 1v.1l.7.8-.3 2-.4 1.5q-.2.6.3.9h.1l.1-.1.5-1.5.3-2.1.1.1.8.8.2.3-.1-.1 1 1-.3 1.5-.6 3 .2.5.3-.4.7-1.9.1-2.1.2.1.9.9v.1l.8.7v2.2l-.1.9-.4 2.8q0 .3.2.3.6.3.6-.5.4-1.7.4-2.8v-.3l.1-1.8.2.1v.1l.3.1.2.2.2.3.3.3.4.4.1 1.5v.8l-.2 3.2h-.3l-2.2.1-2.3.3-.1-.4V45l-.1-.3-.2-.3h-.5l-.3.2v.2l.1.5.1.5.1.2-1.5.5-2.2 1.2q-1 .4-2 1.2l-1.8 1.5-1.5 2q-1 1.5-1.7 3.2l-.7 1.9a23 23 0 0 0-.9 4.8q.1.5.5.5a79 79 0 0 0 9.4-1l.7-.1 1.3-.3h.3l2.5 1.6.3.1.1.1 1.4 1L74 81.1h-1.6L72 81l-2 .2-.8.2-.7-.4-2.1.1-2.2-1-1.9-1.4q-.6-.3-1.1-1l-.6-.6h-.1l-.6-.6v-.3l-.2-.2h-.1l-.1-.4-.2-.1-1.2-1-.2-.7v-.2l.2-.1.6-.9.3-.9.2-.9q.3 0 .5-.3.4-.4.4-.8v-.1l-.5-.7-.5-.3-.2-.8h.3l.9-.2.3-.2V67q-.2-.2-1.9-.1l-.2-.5-.7-1.1q-.5-.8-1.4-1l-1.3-.3q-1 0-1.7.4a3 3 0 0 0-1.4 1.3l-.4.7q-.4 1-.4 2h-.3l-1.4.4v.3q0 .3.4.3H51v.5l-.5.4q-.3.4-.1 1.1 0 .7.6.8h.4l.8 1.1 1.1.9v1q-1 .3-1.1 1.1l-.7 2L48 80q-1.5.9-2.3 1.8t-1.3 2.1A52 52 0 0 0 42 94.7l-.1 3.1v.7h-.1l-3.8-.7-3.2-.5h-3.2a11 11 0 0 0-7 2.4 2 2 0 0 0-.7 1.4q0 1.3 1 2.2l3.7 3.1q.4.4.3.5-.2.3-.6.5-2.1.7-3.8.4l-3.3-.3q-3.4-1-5.1-1A55 55 0 0 1 4.3 103H4l-.6.1q0 .3.2.4l.4.2 6.5 2.3q2.3 1 4 1.1l5.5 1.1 3.7.6v.2h-.3q-2.2 0-5.2-.3L13 108q-3.4-.8-5.3-1-2.4-.7-3.7-.9l-1.3-.1q-.4 0-.4.2t.5.4l4.2 1a73 73 0 0 0 15.3 2.4q3 .1 5.8-.8a4 4 0 0 0 2-1.4q.3-.6.2-1.2l-.2-.6q-.4-1-1.6-1.8-1-.7-1-1.6 0-.8 1-1.4t2.6-.5a100 100 0 0 1 10.9.9h.1v2.3h-.6q-3.6-.7-7.2-.7a2 2 0 0 0-1.3.6q-.6.6-.3 1.2.6 1.5 1.6 2.5.7 1 .7 2 0 1.2-1 1.8t-2.4 1l-1.4.3-5.5.2h-1.3l-3.8-.6-6.7-.8-8.8-1.3H4q-.4.1-.4.4-.1.2.4.4 1.6.5 3.6.8l5.8 1q1.5 0 4.3.5l5.8.4 1.3.2h.8a22 22 0 0 0 7.9-.9 4 4 0 0 0 2.3-2.1q.6-1.7-.1-3L34 105q-.4-.4.2-.5 1.6-.3 3.9 0l2.7.2.7.1.3.1q-.1.8-.4 1.4l-.2.4a42 42 0 0 0-2.4 7.7l-.3 3q0 .5.3.8v.1l.2.5.2.2v.1l.9.9a6 6 0 0 0 2.5 1l.5.1v1.1l.1.7v1.1l-.1.5v1q.2 2.8 6 3.4v.6h-.3q-.4 0-1 .5l-.3.8.3 1.1a3 3 0 0 0 1 1.5l1.7.7q1 .3 2.3.3l2.1-.1 1.3-.8q.3-.4.3-1.2v-.6q-.3-1.5-3.2-1.8v-.7h1.6l5-.3h.1v.4l-.6.1-.1.1q-.6.3-.7 1.1v1.2l.1.2q.6 1.4 3.8 1.7l1.7.1q1.5 0 2.1-.4t.7-1.6v-.8q-.3-.8-1-1.2h-.1l-1.4-.3h-.6v-.8q1.8 0 3-.6h.2q1.2-.6 1.6-1.7l.3-2v-.4l.1-2 .1-3.6v-1.6a29 29 0 0 0-.6-6.1l-.1-.9-.2-.5 11.5 1.6q.7.2.9.5l-.1.1-.4.2-1.4.4-6.5 2.6q-1.4.7-2 1.6l-.1.4q-.3.8-.1 1.7 0 1.8 1.9 3.5l1.4 1.2a20 20 0 0 0 6.2 2.9l3.2.6 5.2 1a69 69 0 0 0 13 .9v-.8h-2.1l-5.2-.4-5.3-.8-8.5-1.5-2-.6q-1.4-.5-2.7-1.3-2-1.3-3.4-3.1-.6-.7-.6-1.6v-.9q0-.6.5-1.2l.9-.7 4.2-1.8 4.3-1.4q1-.3.9-.9-.4-.9-1.2-1.3l-.5-.2-1.4-.2 1.9.2 3.5.9q.3.1.4 0v-.2l-.2-.2-.7-.5-3-.9-.6-.1-2.4-.3-5.5-.6v-.4l.2-.2.6-1.8v-.9l.1-1 3.8.8 6.3 1.6q3 .6 6.1 2.4.6.5.8 1.2 0 .8-.4 1.2-2 1.5-5.5 2t-6 1.8a3 3 0 0 0-1.4 1.3q-.3.8 0 1.5 1 1.7 3.4 2.6a38 38 0 0 0 8.2 2.5l.9.2 6.6.3 5-.4v-.9l-3.1.1q-4.8 0-7.9-.3-5.2-.6-10.6-3.3-1.2-.6-1.3-1.7l.2-.5.5-.3a38 38 0 0 1 7.6-2.2q1.9-.5 3.1-1.3 1-.6 1.5-1.2a2 2 0 0 0 .2-1.8q-.4-1.4-1.8-2l-2.4-1.1q-3.3-1.3-13.6-3.5l.4-4.3.3-6.3.2-6.4h.7l.6 2.7 1 3.5q0 .3.4.5l.2-.2-.5-3.8-.7-3q1-.2 1.1-1.4l.2-.8L77 82q-.3-.6-1.3-1H75l-3.7-17 .6-1v-.3l.2-.2 2-3.5.3-.1q6-2.1 12-5.6.3-.3.1-.7v-.2A14 14 0 0 0 83 49l-2-1.3h-.1l-2.6-1.1-2.8-.9-.7-1.6-1.3-3.2q.3 0 .4-.2l1-.9 1-1.3.4-.8.2-.2a3 3 0 0 1 1.6-.4v1l-.1.8q0 .4.2.4t.3-.3v-.5q.3-.6.2-1.3a3 3 0 0 1 1.6.8 44 44 0 0 1 7.3 14l.3 1.6-.2.3v.8l.3-.2.5 2.4c-.5.7-1.1 1.9-1.3 2l-1.1 1.4q-.4.5 0 .8 0 .1.2 0l.2-.3.8-1 1.3-2 .1.5v.1l.2.5v.8l.1.9-.2.4-1.2 1.8-1.2 1.6v.4h.3q.3 0 .5-.5l.4-.5 1.5-2v.7l.1.3v1.1l.2 2.3-.7 1.2-2 3.1.1.5q.3 0 .4-.3l1.6-2.2.6-1v1l.1.3v1l.4 3.7-1.3 3.1-.7 1.9v.6q.3.1.4-.3l1.8-3.8.1 1.2q.3.7.3 1.4v.3l.2 1.3-1 3-.5 1.1v.5q.6 0 .6-.3l.1-.3 1-2.7.3 1 .2.6q.3.6.2 1l.5 1.3-.8 2.6-.7 2.4q.5 0 .6-.5l.3-.7.2-.5.8-1.9v-.1l.2.5.5.7v.3l.4.6-.4 2.4-1 3.3q0 .4.2.6l.2-.2.2-.2 1-2.6.4-2.2.2.2.1.2.7 1-.1.7-.1 1.7-.6 5.6q.3 0 .5-.3l.8-4v-1.4l.4.6v.6l.1.4.6 2.6q.3 1.6.8 2.5.2.4.5.4l.1-.2v-.3l-1.4-5.7V93h.1v-.2h.1v.1h.2l-.1-.1h-.2l.1-.3-.1.1-.1.1-.1.1v-.2h.2v-.1l-.2-.3h-.2l-.3-1.3 1.1 1.7h-.1l.1.1v.1l1 1.2q.4.6 1 .9l.6.1v-.3q-.7-.6-2.3-2.9l-.5-.7-.6-1.3.2-.6.1-1.1V88l.1-.3q.7 1 1.4 1.5l.5.3.3.1q.3-.2 0-.5l-.6-.6q-.8-.9-1.4-1.9l.5-3h.1q.3.6 1 .3l-.4-.6-.5-.6.5-3.4v-1l1.1 1.1.5.1h.4v-.3l-.4-.2-1.3-1.3-.3-.3V74l1.4 1 .2.2h.5l-.2-.5-.3-.3c-.8-.6-1-1-1.6-1.5v-4.7c.6.4.7.8 1.3 1.3l.3.1.2-.1q.1-.2-.2-.5l-1.5-1.3v-3.8l.2.2h.3v-.5l-.6-.5v-4.6h.5l.1-.2q0-.3-.5-.7v-2.9l-.2-.7v.1q.3 0 .5.3.2.1.4-.2v-.3l-.7-.5-.5-.4-1.1-4.5.7.5q.8.6 1 .3l.1-.2-.5-.5-1.6-1.3-.7-2.9v.1l-.1-.5-.1-.2-.4-1.1 1 1q.7.5 1.1.2l.1-.2-.2-.2-2.4-2-1.1-3.5a3 3 0 0 1-.7-1.8l-.4-1q1.2 1.2 2.5 2l.8.4h.9l-.3-.4-1.9-1.3-2.6-2.1-1.1-2.6-.4-.6-.3-1-.4-.8c.8.5 1.3 1 2.5 1.5h.1q.6.3 1.1 0 .1-.2-.6-.5L89.8 28l-.5-.3-1.2-2.4H88q-.6-.6-.8-1.4l-.5-.7h.2a6 6 0 0 0 2.4 1l.7.1h.4l-.3-.4-2.7-1.2q-.8-.3-1.4-.8-.3-.2-.4-.7-.4-.1-.6-.6l-.4-.8-.7-1q1.2.8 3 1.4 1.1.5 1.3.2L88 20l-.6-.3-1.3-.6q-2.2-.9-3-1.4l-1-1.3q-.5-.2-.9-.7t-.6-1L80 14l3.1 1.1q1 .3 2 .2h.4l-.3-.4-3.1-1-.5-.2q-1.9-.5-3.2-1.4L78 12a7 7 0 0 1-2-2l2.9.6 1.2.1h.5l-.4-.5-1.1-.3-1.3-.2Q76 9.4 75.3 9l-1.5-1-1.4-1.4h.2l1.5.2q1.5.3 2.8.2l.6-.3-.3-.4q-1.7 0-5-.5H72a5 5 0 0 1-3-1.4l-.6-.8q-.2-.4-.5-.1-.2.1-.2.4V4q.4.9.2 1.8l-.5-.1-.6-.5-1.7-.7H43.5l-.9-.4-.7-.3q-.4 0-.4.4l-.2.4h-.5l-.1.7h-1.1l.1-.4q.5-.5.5-1v-1q0-.6-.4-1t-1-.4zm69.4 91.3-.2-.1zm-.3.7.2.2v-.1zh.2v-.3l-.1.1zM76.2 3.3q-.2.3.4.5l1.2.5.8.6q1 1.6 1.7 4.2v.2l.3.1q.3 0 .3-.2l-.1-1.1-.8-2.5 2 1.7a5 5 0 0 1 1.6 1.8q.5 1.3 1 4l.2.5h.2q.5 0 .3-.8l-.6-3 1.3 1.5q.8.8.9 1.4a17 17 0 0 1 1 5.1q0 .4.3.4.4 0 .4-.4l-.1-.6-.2-3.1q0 .4 1 1.6.7.9.9 1.6.7 3.3.4 5.3l.2.5v.1l.5-.3.2-1.5-.1-2.6q.1.5 1 1.7.6 1 .8 1.7.6 3.3.6 5.4-.1 1 .2 1 .6 0 .6-1l-.1-2.1-.3-2.2 1.9 3.7q.9 2 .6 3.8l-.4 2.9q0 .5.3.5l.4-.4q.3-.9.6-3.7l2.5 5.4v-1.4h-.1q-1.2-3.3-2.9-6.8v-.2h.4l2.6 1.7q.6.3.8.2l.2-.3-.6-.5-.5-.2q-2.7-1.6-3.7-2.8L95 23.3l-1.1-2 2 1.4q2.2 1.4 4 1.7h.1l.4-.1-.3-.5h-.1l-2.7-1.2a16 16 0 0 1-5.3-4.2l-.2-.7 5.2 1.9.9-.3v-.2l-.7-.3-1.1-.2q-2.8-1-5.3-2.6l-1.5-1.7Q88 12.9 88 12.6l3 .8q1.6.5 3 .3 1 0 1.1-.3l.2-.2-.2-.1a14 14 0 0 1-5.6-.8l-1.8-.6-1.5-1L85 9.2l-.2-.1-.1-.3h.6l3.2.5q1.8.3 3.2 0l.6-.5v-.2H92q-.4.3-1.6.2L86 8.3q-2.4-.6-4-1.8l-.9-.9h1.2l1.2.1q2 0 3.5-.5.3-.1.3-.4t-.5-.1l-1.9.2q-1.8.1-4.2-.3l-4-1.1zm-7.4 1.9 1.5 1.1v.4l-1.7-.8v-.6q0-.3.2-.1m2.7 2 .7.6q-.3 0-.5-.2l-.2-.2zm-34.6 3.6q0 .7.4 1l.4.3.1.2-.8 1.5-.4.6v.5h.3l.4-.6 1-1.3.3.3 1.3 2-.8 1.5-.1.4q-.3.3-.4 1.1h.2l.3-.1.5-.8.8-1.4q.4.3.6.8l1.8 2.4-.7 1.6-.1.3q-.3.3 0 .8h.2l.3-.6.7-.9.2-.6.4.5 1.7 2.1a25 25 0 0 0-3.5 4.3l-.2 1.5h-.3l-2-1.5-.1-.1-.8-.4 1.7-.9 1-.4h.2q.2 0 0-.1 0-.6-.5-.5l-1.4.5-2 .8h-.1l-1.2-.5q-1 0-1.7-.5 1-.7 1.9-1.1l.7-.2q.5-.2.3-.5-.1-.3-.6-.2l-.6.2-1 .4-2 1.2h-.2l-1 .2-1.1-.2h-.4c.7-.5 1.1-1 2.2-1.6l.4-.3q.3-.2.2-.3 0-.2-.4-.1-.9.2-1.6.7-1.2.7-2.4 2l-1.2.1-.1.2-1.3.7-1.1.1-.9.5q1.6-1.9 2.7-2.9l.9-.7.2-.4-.5-.1q-1 .3-2.1 1.5l-.4.4q-1.8 2-2.4 3.1l-1.3.8-.8 1.1-.1.1-.1.2-.6.2h-.1l-1.5.6 1.6-2.4.8-.9 1.1-1.4 2.6-2.8h.1q.9-1 3-2l1.4-.9a8 8 0 0 0 2.7-3.5c.8-1.4 1.5-2 2.2-2.9q.4-.6 1.9-1.7l1-1zm35.5 29.8.1.1 1.5 3 .7 1.9-1.2-.2h-1.2l.3-2.7zm-1.1 5.7 2 .1.7.1-.4.3-2.3 1.3-2.6 1.1-.3.2-2.4.7-2.8.5H61l-1.1-.2.9-.7 1.8-1.2 2-1 2.3-.8zm4.2.4 2.4.8 1.7.7-2 1.2-2.8-2.2zm-1.7 1.1 3 2-2.7 1.4-1.8-2.5zm6.9.9 1.8 1a12 12 0 0 1 2.7 2.9A80 80 0 0 1 71.9 58h-.1l-4.9 1.3-3 .8h-.7q-4.2.9-8.6 1.2l.8-3.6.6-1.5a37 37 0 0 0 7.5-.6h.2l3-.6.5-.2 2.7-.8.8-.3 1.7-.7 1.8-.8 3.7-2zm-9.3.5 1.8 2.5-1.2.5-1.2.5-1.3-2.7zm-2.8 1.2L70 53l-.3.1-2.2.7-.7-2.9zm-2.9.8.8 3-2.5.4-.3-3.1zm-6.7 0 1.4.3-1.3 3.8h-2.6l1.2-2.4zm2.4.4h1.3l.3 3.2-2.8.4zm11.2 8-.6.9.2-.8.2-.1zM71 60l-.4 1.8-.4-1.6zm-1.8.5.3 1.2-.7-1.1zm-1.5.4.8 1.1-1.5-1h.1zm-10 7.1.3 1.2.1 1.1-.2 1.1-.3.8-1 1q-1.2.8-2.4.4l-1.3-.8q-.6-.5-1-1.4l-.1-1.1v-1l.4-.1h-.1v.5l.2.2q.2.1.4 0l.7-.1-.4.3-.2.3.1.4.3.2.4-.1.4-.3.2-.3-.1-.4-.3-.2h-.3l.2-.1v-.4l-.2-.3 2.7-.6v.3l.2.3v.1l-.2.4.2.3.3.2h.5l.4-.2.1-.3-.1-.4-.2-.1.1-.2v-.4l-.1-.2zm-1.3 3.3-.5.1-.6.1h-.1l-.1.1-.1.2.3.3h.3l.6-.2q.2 0 .3-.2zm-.3 1.2H56l-1.1.2q-.2 0-.3.2l-.1.2.2.2.4.1 1-.1.4-.2v-.3l-.1-.2zm.3 2h.2q-.5.7-1.4.7l-.6-.1-.3-.3h.7q.5.1 1.4-.4m.8 1.2h1q.6.5.5 1.4l-.9 1-.7.3-.6-1.8v-.2zm-2.7.3.5.1.2.2h.2l.4 2.5h-1.6l-1.5-.4-.4-.2 1-2h.1zm5 1.7.4.4.5.5 2.9 2.2a13 13 0 0 0-1.5 3.1q-.4 1.3-.3 2.8 0 .2.2.2.3-.1.4-.5l1-3.1q.1-.6.5-1.1l.6-1q.4-.2 1.1.5l-.4 1-.4.9-.3 1-.3.9-.3 2q-.3 1.3-.3 2.6v1.8q0 2.5.9-1.2V90l.7-4.6 1.4-3.6q1.3-.1 1.9.3L67 85.4a27 27 0 0 0-.9 5.6 40 40 0 0 0 .1 6.3l.2.4h.3l.1-2 .3-1.5.3-5.4q.1-1.7.7-3.4l1.2-3.2 2.2-.2-.6 1.8-.6 2.3q-.6 3.4-.4 6.7l.3 7.7 1 5.5q.2.8-.4 1h-3.1l-.4-.1-.7-.1-1-.5-1-.4a19 19 0 0 1-6-4.2l-.7-1 1.4-3.9h.5q.9 0 1.8-.7l.7-.8q.6-1.3-.2-2.7a3 3 0 0 0-2.4-1.3h-.1q-1.5.2-2.7.9l-.2-.1-2.1-.3v-.3l-.2-1.4a17 17 0 0 0-2.1-6.1l-.7-.8h-.3v.3q0 .6.4 1.2a21 21 0 0 1 1.7 5.6v1.5l-1.2.4-.3-.1v-.3a9 9 0 0 0-1-3.3 4 4 0 0 0-1.1-1.4h-.2l-.1.1-.2.4v.1l1.1 2.1.5 2.2h-1.4l-1.5.2q-.8.2-.8.8h5.5l.9-.2 2.7.2a10 10 0 0 1-1.2 3.3l-2 4.7a32 32 0 0 0-2.4 9.7l-.1.6-.1 1.3-.4 3.1-.3 3.4q-.6 1-1.4 1.2l-2.2-.1a16 16 0 0 1-5.5-1.3l-.7-.6q-.6-.7-.4-1.6l1.4-7 1.4-3.5.4-1.3.3-2V92.4l1.6-6.3.7-2.2a5 5 0 0 1 2.6-2.8l3.6-1.8.2-.2.4.2a6 6 0 0 0 4.1.4h.2v-.1l.7-.2 1.2-.9zM75.4 82q1 .3.8 1.3l-.1.6q-.2.7-.8.8h-.1a6 6 0 0 1-2.4.2q-.6 0-1.1-.2l1-2.6zm-4 3.7 1.4.2h.4v.2l-.2 6.2a96 96 0 0 1-1.1 12.5 64 64 0 0 1-.9-8v-4q-.2-3.5.5-7.1M60 92.3q.9 0 1.4.8.5 1 .2 1.7l-.4.5q-.6.4-1.3.5H59a6 6 0 0 1-2.5-.6l.9-2v-.1q1.2-.6 2.5-.8M56 96.2q1 .6 2.6.7l-1.7 4.2-2.3 5.3a30 30 0 0 0-2 5.7l-1.5 3.8.6-5.1a39 39 0 0 1 .8-5.8 50 50 0 0 1 3.3-8.6zm-24.4 2.1q2.7-.2 6 .3l3 .4q.8 0 1.2.3l.1 1.4v.1l-4-.9a33 33 0 0 0-9.3.2q-1.5.3-2.2 1.4v.2q-.2 0-.2.5 0 .3-.2.2-.5 0-.9-1.1 0-.4.7-1 2.2-1.7 5.8-2m25.6 3.9h.1l1.3 1.4.5 3 .1.8.2.5v2.9l.1 1.4v4.2a30 30 0 0 1-2.3 11.3l-.1.2h-4.4l-3.2-.2q-5.1-.6-5.6-2.4l.1-1.7v-2.2a20 20 0 0 0 4.4.4q1.4 0 2.3-1.9v-.1l.6-1.4.9-2 2.9-9.3.4-1zm2.7 2.5.3.3a22 22 0 0 0 6.4 3.6l.3.4v.1l.1.1.4 2.2a35 35 0 0 1 .2 8.3l-.1 3-.1 1.5-.1 1.2q0 1.5-1.9 1.9l-1 .1h-1.1l-2.9.2h-1.2l-.8.1a28 28 0 0 0 1.9-8.2 59 59 0 0 0 .2-8.7v-.4l-.2-2.6-.1-.7-.2-1zm-17.1 3.9v.3zm-18.1 7.7-.4.1-.2.4v.2l.2.2q.4.4.6 1l.2.2.2.5.2.4h.4l.3-.2v-.4l-.2-.6-.2-.4-.8-1.2zm2.2.1-.2.2q-.2 0-.2.3v.4l.3.5v1.1q0 .3.3.4h.3l.4-.1v-1.5l-.2-.7-.2-.3zm-3.1 1.8h-.3q-.4.6 0 1l.6.9 1 1.7q.4 1 .5 2l-.2.8-.3.5-1.4-1-1.1-.9a3 3 0 0 0-2.2-.1q-1 .3-1.5 1.5-.3.6-.2 1.4t.4 1.3l.9 1.9q-.9.6-1.9 0l-1.4-.7q-1.2-.6-1.3-1.9v-1.8q0-.6-.3-1.1l-.2-.3-.5.3-.1.3q.3.7.2 1.6v1.5q0 1 .8 1.7l1.2.9 1.4.4 1 .3 1.4-.1.6-.9q0-.6-.3-1.4l-1.1-2.6q.3-1.1 1.2-1.3h.5l.9.3q.7.3 1.5 1 .4.4 1.3.7h.4q1 0 1.1-1l.3-1.2v-1.4q-.2-1-.8-1.7l-.7-1-.4-.4-.3-.7q-.3-.6-.7-.5m5.8.2h-.2l-.3.5q-.3 3.8.3 7.4a17 17 0 0 0 3.1 2.4q.3 0 .6.4l.5.5a9 9 0 0 1 1.9 4.5v1q0 .8.5 1.3l.3.2 1.4-.2q1.8 0 2.6 1.4l.2.5.5 1.2q.3 1.4.2 2.8l-.1.4v1a5 5 0 0 0 1.5 2.4l.3-.2.2-.1v-.4a5 5 0 0 1-1.2-4.2v-1.9q0-.7-.4-1.5l-.7-1.1a4 4 0 0 0-3.2-1.3l-1 .1v-1.4a9 9 0 0 0-2.2-5l-.6-.8-.1-.1-1.2-1-.3-.2-1.8-1-.4-4.4a11 11 0 0 0-.1-3.1zm53.1 4.5q-.7-.1-1 .3l.3.2 2.5.7 2.5.6a61 61 0 0 0 10.9.9l2.9-.5v-.5h-1.6q-.9.3-2.1.2l-2.1-.1-3-.2q-1.8 0-3-.3zm-69.8.9q-.3.1-.3.4v.4l.4.5.7 1h.7v-.7l-.5-.7v-.1l-.3-.5-.3-.2zm-1.8 1.2q-.3 0-.3.3-.2.1-.1.4l.2.3 1.8 1h.4q.2 0 .3-.2l-.1-.4-.2-.3-.9-.4h.1zm12 1.9q-.3 0-.4.2-.2 0-.2.2v.3l3 4.7.2-.4-.1-1-.4-.8zm-13 .8q-.3.9.6.9l1.5.3q1.3 1 1.9 2.3.3.8 1 1.3l2.7 1.6q-.2 1.5.4 2.7.9 1.8 2.1 3.1-3 2-4.9 5.5a10 10 0 0 1-1.8 2.4q0 .3.4.3l.4.1a36 36 0 0 0 3.9-4.9q1.3-1.9 3.1-2.9l.4-.3-1.1-1.5-1-1.3q-1-1.6-.9-3.7a10 10 0 0 1-3.3-2.3l-.7-1q-1-1.4-2.3-2.4zm52.6 1.1v.7h-.5l-1.2-.1v-.5zm-12.8.4h2.2v.7h-.7l-1.3-.2H50v-.5m10.6 1h4l.6.2.2.2.2.2.2.4.2.2v.5l-.3.4-.5.3h-1.7l-.5.1-2.5-.4-.5-.3-.2-.1-.2-.1-.2-.5v-.1q0-.4.2-.6l.6-.3zm-11.9.4h1.4l2.3.3.7.2q1.5 0 2 .5l.3.3v.5l-.1.4-.8.4h-1.8l-3-.6-1-.8-.3-.9.1-.1zM28 135.3v.4l1.9 4 .4 1 .5 1.5v.6l-.2.3-1 1.2q-.6.6-1.6.5l-.7-.1h-1.5l-2-.4q-1.2 0-3.3 1.3v-.1q-2.7 1.5-2.7 3.5v1.7l-.2.4v.3l.2.3h.7l.3-.4v-2.1q.1-1.5 2.2-2.5a6 6 0 0 1 2.9-1.1l2 .4 1.7.4h.6l1.4-.2.7-.4.6-.4.9-1.2.2-.5h.4a6 6 0 0 0 3.8-.6 6 6 0 0 0 2-2.1l.2.7q.3 1 .2 2.2v.1l-1 2.2-.2.6v-.1l-.2 1-.1.5.1.9.3.3h.3l.4-.1V148l.2-.8.1-.4v-.2l.3-.5.7-1.5.2-.7.1-.7a6 6 0 0 0-1-3.8l-.2-.2-.3-.1-.4-.1-.2.1-.2.2-.2.4-1.5 1.9q-.2 0-.3.2h-.1l-1 .4q-.7.3-1.6.1-.6-.2-1-.9l-.5-1-.5-1.2-.2-.4q0-.4-.3-.7-.9-1.7-2.2-2.9m60.5 5.6q-6.4-.3-12.4 2.3l-2.8.9-2.6-.5q-4.5-1.2-9.1-.2-3 .7-7.2 2.6a125 125 0 0 1-11.6 5.4l-27.2 8.3q-.6.2-.6.7l-.2.4-.3.1q-1 0-5 .9h-.7l-1.7.5-2 .5-.3-.1H4l-.7.2-.2.7v.8q0 .4.2.7l.7.2h76.4l.3-.1 19.3.1.6-.2v-.1l.3-.6v-14l-.1-.4v-7.1l-.2-.6-.6-.3-7.9-.4-.1-.1zM41.2 146l-.3.3q-.2 0-.1.3l.2 1.6.2.4h.3l.4-.2q.2-.2 0-.3l-.1-1.6-.2-.3zm-1.6.8-.4.1-.1.4v1.6l.1.4.4.1.3-.1.2-.4v-1.6l-.2-.4zm-23.9 1.3h-.3l-.8.7q-.2 0-.2.3l.1.4.4.2.3-.1 1-1-.1-.4zm1 1q-.3 0-.3.2l-.6.8q-.2 0-.1.3l.2.4h.3l.4-.1.7-1.2q0-.3-.2-.3z"/><path fill="#ef1d1e" d="M28.8 8.6a17 17 0 0 0-12.4 5.2q-5.1 5.1-5.2 12.4c0 7.3 1.8 9 5.2 12.5q5 5.1 12.4 5.1c7.4 0 9-1.7 12.4-5.1s5.2-7.6 5.2-12.5-1.7-9-5.2-12.4-7.5-5.2-12.4-5.2"/><path fill="#fff" d="M27 11.8q-.8 0-1.2 1.4-.5 1.5 0 4.6l-.2 5.4-1.9.6q-3 1.3-3.1 2.5v.3l.1.3h.4l5-1.1q-.4 1.3-1.8 3a22 22 0 0 1-3.6 4l-1.1 1q-.9.8-1.8 1.1t-.9.8q0 .2.4.5t1 .2q1.4 0 3.8-2.3l3.2-3.5c.8-1 1.1-1.6 1.8-2.8l1.5-2.6V25h.1-.1l.1 3-.3 5.5q0 2 1.2 2.7 1 .8 4.5.9 3.5.2 5.4-1.4t1.7-3.3-.8-2.4q-1-1-1.3-1-.6 0-1.1 1.7-.7 1.6-1.4 2l-2.5.6-2 .4q-1.5 0-1.5-3.1v-5.1q0-.5-.6-.9 4.2-1.5 4.2-2.6 0-1-.6-1l-1.2-.2q-1 0-1.9.4l-2.4 1L28 21l.3-3.5.2-4.5q-.4-1.4-1.3-1.3zm5.7 1.7q-1 .7-2.3 2.3-1.5 1.5-1.5 2.5v1.1l.2.2.3.1a9 9 0 0 0 2.7-1.6q2.5-1.8 2.5-2.6 0-.7-.6-1.3t-1.3-.7m-12.5 4.6q-.4 0-.7.6l-.3.9q0 1.2.5 1.8.5.5 1.4.6h.8l.7-.1.3-.2q1.2-.5 1.2-1.3 0-.6-.4-.8l-1.3-.3q-.9 0-1.3-.7-.5-.5-.9-.5"/><path fill="none" stroke="#000" d="M28.8 8.6a17 17 0 0 0-12.4 5.2q-5.1 5.1-5.2 12.4c0 7.3 1.8 9 5.2 12.5q5 5.1 12.4 5.1c7.4 0 9-1.7 12.4-5.1s5.2-7.6 5.2-12.5-1.7-9-5.2-12.4-7.5-5.2-12.4-5.2z"/><path fill="#ef1d1e" d="M5 0Q0 0 0 5v158.2q0 5 5 5h93.2q5 0 5-5V5q0-5-5-5zm8.3 7.2h76.6q7 0 7 7V154q0 7-7 7H13.3q-7 0-7-7V14.2q0-7 7-7"/><path fill="none" stroke="#000" stroke-width="1.2" d="M13.3 7.2q-7 0-7 7V154q0 7 7 7h76.6q7 0 7-7V14.2q0-7-7-7z"/></svg>